<svg id="visual" viewBox="0 0 675 900" width="675" height="900" xmlns="http://www.w3.org/2000/svg" xmlns:xlink="http://www.w3.org/1999/xlink" version="1.1"><path d="M0 217L12.5 211C25 205 50 193 75 176.5C100 160 125 139 150 139C175 139 200 160 225 191.5C250 223 275 265 300 254.5C325 244 350 181 375 164.5C400 148 425 178 450 187C475 196 500 184 525 185.5C550 187 575 202 600 206.5C625 211 650 205 662.5 202L675 199L675 0L662.5 0C650 0 625 0 600 0C575 0 550 0 525 0C500 0 475 0 450 0C425 0 400 0 375 0C350 0 325 0 300 0C275 0 250 0 225 0C200 0 175 0 150 0C125 0 100 0 75 0C50 0 25 0 12.5 0L0 0Z" fill="#6198ff"></path><path d="M0 541L12.5 529C25 517 50 493 75 463C100 433 125 397 150 416.5C175 436 200 511 225 547C250 583 275 580 300 550C325 520 350 463 375 433C400 403 425 400 450 424C475 448 500 499 525 535C550 571 575 592 600 557.5C625 523 650 433 662.5 388L675 343L675 197L662.5 200C650 203 625 209 600 204.5C575 200 550 185 525 183.5C500 182 475 194 450 185C425 176 400 146 375 162.5C350 179 325 242 300 252.5C275 263 250 221 225 189.5C200 158 175 137 150 137C125 137 100 158 75 174.5C50 191 25 203 12.5 209L0 215Z" fill="#2d77ff"></path><path d="M0 712L12.5 731.5C25 751 50 790 75 808C100 826 125 823 150 826C175 829 200 838 225 838C250 838 275 829 300 806.5C325 784 350 748 375 725.5C400 703 425 694 450 697C475 700 500 715 525 740.5C550 766 575 802 600 796C625 790 650 742 662.5 718L675 694L675 341L662.5 386C650 431 625 521 600 555.5C575 590 550 569 525 533C500 497 475 446 450 422C425 398 400 401 375 431C350 461 325 518 300 548C275 578 250 581 225 545C200 509 175 434 150 414.5C125 395 100 431 75 461C50 491 25 515 12.5 527L0 539Z" fill="#005de8"></path><path d="M0 901L12.5 901C25 901 50 901 75 901C100 901 125 901 150 901C175 901 200 901 225 901C250 901 275 901 300 901C325 901 350 901 375 901C400 901 425 901 450 901C475 901 500 901 525 901C550 901 575 901 600 901C625 901 650 901 662.5 901L675 901L675 692L662.5 716C650 740 625 788 600 794C575 800 550 764 525 738.5C500 713 475 698 450 695C425 692 400 701 375 723.5C350 746 325 782 300 804.5C275 827 250 836 225 836C200 836 175 827 150 824C125 821 100 824 75 806C50 788 25 749 12.5 729.5L0 710Z" fill="#004cbb"></path></svg>